<?xml version="1.0" standalone="no"?>
<!DOCTYPE svg PUBLIC "-//W3C//DTD SVG 20010904//EN"
 "http://www.w3.org/TR/2001/REC-SVG-20010904/DTD/svg10.dtd">
<svg version="1.0" xmlns="http://www.w3.org/2000/svg"
 width="800.000000pt" height="800.000000pt" viewBox="0 0 800.000000 800.000000"
 preserveAspectRatio="xMidYMid meet">
<metadata>
Created by potrace 1.15, written by Peter Selinger 2001-2017
</metadata>
<g transform="translate(0.000000,800.000000) scale(0.100000,-0.100000)"
fill="#000000" stroke="none">
<path d="M3730 7654 c-270 -25 -445 -53 -655 -105 -935 -235 -1753 -844 -2255
-1679 -261 -435 -422 -901 -495 -1430 -22 -158 -31 -598 -16 -770 86 -983 536
-1865 1276 -2500 531 -455 1155 -739 1865 -847 205 -31 626 -43 853 -24 1507
128 2788 1181 3216 2644 47 160 93 378 117 557 22 166 30 625 14 803 -46 513
-208 1039 -451 1470 -79 139 -247 389 -345 512 -120 150 -422 451 -574 571
-539 427 -1144 683 -1825 775 -145 19 -604 34 -725 23z m395 -1854 c632 -16
815 -24 841 -35 95 -39 98 -192 4 -240 -25 -13 -60 -15 -195 -13 l-165 3 0
-39 c0 -70 -29 -1208 -35 -1373 l-6 -163 150 0 c170 0 216 -11 253 -63 30 -41
30 -113 0 -154 -43 -60 -56 -61 -470 -51 -205 6 -375 9 -377 7 -3 -4 -155
-1992 -155 -2028 0 -8 -2 -12 -5 -9 -3 3 -48 463 -100 1023 -51 559 -95 1018
-97 1020 -2 2 -162 9 -355 14 -387 11 -396 13 -433 74 -25 41 -25 103 -1 143
30 50 74 64 195 64 58 0 106 1 106 3 1 9 40 1527 40 1545 0 21 -3 22 -100 22
-112 0 -155 12 -188 55 -47 59 -31 154 31 194 41 26 41 26 1062 1z"/>
</g>
</svg>
