<?xml version="1.0" standalone="no"?>
<!DOCTYPE svg PUBLIC "-//W3C//DTD SVG 20010904//EN"
 "http://www.w3.org/TR/2001/REC-SVG-20010904/DTD/svg10.dtd">
<svg version="1.0" xmlns="http://www.w3.org/2000/svg"
 width="800.000000pt" height="800.000000pt" viewBox="0 0 800.000000 800.000000"
 preserveAspectRatio="xMidYMid meet">
<metadata>
Created by potrace 1.15, written by Peter Selinger 2001-2017
</metadata>
<g transform="translate(0.000000,800.000000) scale(0.100000,-0.100000)"
fill="#000000" stroke="none">
<path d="M3790 7654 c-1204 -68 -2282 -700 -2924 -1713 -308 -486 -504 -1066
-556 -1641 -13 -148 -13 -522 0 -670 93 -1038 628 -1997 1465 -2625 449 -337
979 -569 1525 -669 250 -46 406 -59 680 -59 273 0 429 13 680 59 952 173 1814
737 2363 1546 349 513 556 1078 622 1695 22 197 22 579 0 776 -185 1730 -1535
3090 -3255 3282 -136 15 -479 26 -600 19z m1866 -2321 c34 -11 67 -34 110 -77
102 -103 95 5 92 -1316 l-3 -1145 -24 -45 c-32 -61 -86 -116 -146 -148 l-50
-27 -1635 -3 c-1877 -3 -1701 -12 -1806 92 -102 102 -94 -9 -94 1297 0 1245
-3 1176 59 1261 35 47 95 93 148 113 32 11 293 14 1669 14 1498 1 1634 0 1680
-16z"/>
<path d="M2455 5111 c110 -106 1200 -1042 1245 -1068 165 -100 387 -101 555
-4 39 22 1153 979 1255 1077 l25 24 -1555 0 -1555 0 30 -29z"/>
<path d="M2310 3979 c0 -885 2 -1051 14 -1039 40 44 985 1206 986 1213 1 5
-216 198 -482 429 -266 231 -491 427 -500 436 -17 14 -18 -36 -18 -1039z"/>
<path d="M5146 4596 c-274 -239 -498 -438 -497 -442 0 -5 225 -282 498 -616
l498 -608 3 525 c1 289 1 761 0 1049 l-3 525 -499 -433z"/>
<path d="M3383 3992 c-153 -184 -978 -1195 -981 -1200 -1 -4 707 -6 1573 -4
866 1 1575 5 1576 8 1 7 -1020 1254 -1026 1254 -3 0 -40 -29 -83 -65 -286
-240 -670 -232 -951 21 -27 24 -51 44 -55 44 -3 0 -27 -26 -53 -58z"/>
</g>
</svg>
