<?xml version="1.0" standalone="no"?>
<!DOCTYPE svg PUBLIC "-//W3C//DTD SVG 20010904//EN"
 "http://www.w3.org/TR/2001/REC-SVG-20010904/DTD/svg10.dtd">
<svg version="1.0" xmlns="http://www.w3.org/2000/svg"
 width="800.000000pt" height="800.000000pt" viewBox="0 0 800.000000 800.000000"
 preserveAspectRatio="xMidYMid meet">
<metadata>
Created by potrace 1.15, written by Peter Selinger 2001-2017
</metadata>
<g transform="translate(0.000000,800.000000) scale(0.100000,-0.100000)"
fill="#000000" stroke="none">
<path d="M3780 7653 c-1160 -66 -2212 -666 -2860 -1633 -515 -768 -718 -1698
-574 -2630 165 -1071 813 -2029 1749 -2587 824 -492 1814 -643 2752 -418 531
128 1015 366 1457 719 134 106 440 414 550 551 452 568 718 1220 797 1955 16
149 16 572 0 720 -93 859 -439 1605 -1021 2204 -316 325 -625 550 -1025 746
-366 180 -693 282 -1090 339 -234 34 -511 47 -735 34z m566 -1846 c517 -131
901 -528 1009 -1042 23 -109 31 -306 15 -401 -60 -374 -410 -1022 -950 -1759
-124 -168 -336 -443 -370 -479 -17 -18 -21 -15 -112 100 -624 786 -1091 1564
-1215 2022 -35 131 -42 318 -18 464 47 285 172 525 380 733 162 162 341 272
542 334 165 51 238 61 438 57 152 -3 196 -8 281 -29z"/>
<path d="M3962 5069 c-288 -36 -505 -282 -505 -574 0 -162 54 -288 172 -406
117 -116 240 -169 398 -169 172 0 295 50 414 169 116 116 169 244 169 406 0
163 -53 290 -169 405 -136 136 -295 192 -479 169z"/>
</g>
</svg>
