<?xml version="1.0" standalone="no"?>
<!DOCTYPE svg PUBLIC "-//W3C//DTD SVG 20010904//EN"
 "http://www.w3.org/TR/2001/REC-SVG-20010904/DTD/svg10.dtd">
<svg version="1.0" xmlns="http://www.w3.org/2000/svg"
 width="800.000000pt" height="800.000000pt" viewBox="0 0 800.000000 800.000000"
 preserveAspectRatio="xMidYMid meet">
<metadata>
Created by potrace 1.15, written by Peter Selinger 2001-2017
</metadata>
<g transform="translate(0.000000,800.000000) scale(0.100000,-0.100000)"
fill="#000000" stroke="none">
<path d="M3690 7644 c-19 -2 -80 -9 -135 -15 -979 -105 -1913 -637 -2513
-1432 -574 -760 -828 -1683 -726 -2637 135 -1264 923 -2374 2076 -2924 485
-232 947 -340 1503 -353 635 -14 1190 112 1754 397 357 180 641 388 936 684
675 676 1046 1545 1072 2506 28 1040 -369 2017 -1113 2740 -580 563 -1296 909
-2104 1016 -118 15 -658 28 -750 18z m-600 -2064 l0 -360 -125 0 -125 0 0 360
0 360 125 0 125 0 0 -360z m2148 3 l-3 -358 -122 -3 -123 -3 0 361 0 360 125
0 125 0 -2 -357z m-2626 -105 c3 -217 4 -224 30 -280 34 -73 103 -142 176
-176 49 -23 70 -27 147 -27 76 0 99 4 146 26 79 37 133 90 171 167 l33 66 3
223 3 223 719 0 719 0 3 -223 3 -223 33 -66 c38 -77 92 -130 171 -167 47 -22
70 -26 146 -26 77 0 98 4 148 27 76 36 149 112 178 185 22 53 24 77 27 277 l3
219 65 -6 c76 -6 187 -55 253 -113 58 -51 117 -142 141 -222 20 -63 20 -96 20
-1452 0 -1368 0 -1389 -20 -1454 -41 -133 -155 -254 -287 -308 l-58 -23 -1545
0 -1545 0 -57 23 c-121 49 -231 159 -280 280 l-23 57 -3 1395 c-2 1043 0 1409
9 1450 41 195 237 367 421 369 l46 1 4 -222z"/>
<path d="M2370 3550 l0 -1190 1670 0 1670 0 0 1190 0 1190 -1670 0 -1670 0 0
-1190z m1301 716 c274 -58 401 -312 303 -604 -47 -142 -140 -275 -333 -476
-95 -99 -141 -154 -141 -171 0 -3 104 -5 230 -5 l230 0 0 -125 0 -125 -480 0
-480 0 0 89 0 90 114 84 c73 55 188 159 323 294 293 291 351 385 341 549 -7
100 -44 166 -119 208 -49 28 -62 31 -144 31 -105 0 -165 -18 -253 -75 l-60
-38 -30 68 c-34 78 -36 73 47 125 130 81 305 112 452 81z m1032 -1 c306 -65
425 -376 265 -696 -54 -109 -140 -220 -284 -369 -67 -69 -129 -140 -138 -158
l-17 -32 231 0 230 0 0 -125 0 -125 -480 0 -480 0 0 89 0 89 106 78 c119 87
453 406 546 523 90 112 120 179 126 276 5 94 -7 147 -47 202 -47 65 -106 88
-221 87 -109 0 -174 -21 -256 -79 l-49 -35 -27 57 c-14 32 -27 65 -27 74 -2
35 158 118 274 143 90 19 163 19 248 1z"/>
</g>
</svg>
