<?xml version="1.0" standalone="no"?>
<!DOCTYPE svg PUBLIC "-//W3C//DTD SVG 20010904//EN"
 "http://www.w3.org/TR/2001/REC-SVG-20010904/DTD/svg10.dtd">
<svg version="1.0" xmlns="http://www.w3.org/2000/svg"
 width="800.000000pt" height="800.000000pt" viewBox="0 0 800.000000 800.000000"
 preserveAspectRatio="xMidYMid meet">
<metadata>
Created by potrace 1.15, written by Peter Selinger 2001-2017
</metadata>
<g transform="translate(0.000000,800.000000) scale(0.100000,-0.100000)"
fill="#000000" stroke="none">
<path d="M3631 7639 c-1562 -150 -2856 -1269 -3230 -2791 -79 -321 -105 -569
-98 -953 4 -241 9 -318 30 -455 123 -807 473 -1505 1037 -2071 542 -544 1207
-893 1957 -1028 410 -74 896 -74 1306 0 748 135 1411 482 1952 1024 582 581
932 1290 1051 2130 24 172 30 652 10 842 -92 867 -454 1631 -1061 2238 -612
613 -1403 983 -2270 1065 -126 12 -559 11 -684 -1z m372 -2025 c92 -20 236
-90 307 -148 117 -97 207 -239 246 -386 38 -147 15 -348 -55 -488 -59 -118
-180 -249 -274 -299 -28 -15 -29 -18 -12 -21 61 -13 213 -70 300 -114 144 -73
265 -158 388 -278 249 -239 406 -519 483 -860 29 -127 50 -338 40 -402 -10
-69 -60 -136 -125 -170 l-53 -28 -1402 0 c-909 0 -1414 4 -1437 10 -53 15
-124 82 -145 135 -14 38 -16 67 -11 173 30 687 492 1308 1120 1507 l101 32
-60 40 c-126 86 -231 227 -281 378 -24 71 -27 96 -27 215 0 122 2 143 27 215
85 245 273 420 519 485 93 24 252 26 351 4z m2021 -150 c22 -11 54 -37 70 -58
l31 -38 3 -266 c2 -147 0 -282 -3 -300 -8 -42 -59 -100 -110 -123 -36 -17 -71
-19 -321 -19 l-281 0 -156 -186 -157 -185 0 183 0 184 -44 12 c-53 14 -114 64
-132 109 -11 24 -14 98 -14 298 0 246 2 269 20 305 25 50 76 88 131 99 24 5
242 9 484 8 424 -2 441 -3 479 -23z"/>
</g>
</svg>
