<?xml version="1.0" standalone="no"?>
<!DOCTYPE svg PUBLIC "-//W3C//DTD SVG 20010904//EN"
 "http://www.w3.org/TR/2001/REC-SVG-20010904/DTD/svg10.dtd">
<svg version="1.0" xmlns="http://www.w3.org/2000/svg"
 width="800.000000pt" height="800.000000pt" viewBox="0 0 800.000000 800.000000"
 preserveAspectRatio="xMidYMid meet">
<metadata>
Created by potrace 1.15, written by Peter Selinger 2001-2017
</metadata>
<g transform="translate(0.000000,800.000000) scale(0.100000,-0.100000)"
fill="#000000" stroke="none">
<path d="M3790 7654 c-927 -53 -1768 -429 -2420 -1083 -577 -580 -935 -1311
-1047 -2141 -26 -194 -26 -736 0 -930 56 -417 165 -780 341 -1145 482 -996
1379 -1721 2451 -1981 281 -68 551 -98 875 -98 348 1 633 38 950 124 1226 332
2189 1263 2563 2480 111 358 158 686 158 1085 0 412 -53 765 -172 1130 -449
1389 -1657 2380 -3094 2539 -140 16 -483 27 -605 20z m310 -2349 c279 -74 462
-357 407 -628 -30 -145 -100 -260 -209 -342 -36 -27 -54 -47 -46 -49 7 -3 38
-12 68 -22 165 -52 316 -147 456 -288 55 -55 123 -135 151 -176 145 -217 225
-463 227 -696 1 -110 1 -112 -30 -150 -63 -80 30 -74 -1162 -74 -1169 0 -1100
-4 -1159 63 -40 45 -48 85 -40 198 17 230 93 454 223 652 26 40 95 120 153
178 149 149 289 238 473 298 l68 23 -59 44 c-167 125 -250 342 -207 542 43
205 200 371 402 427 66 18 216 18 284 0z m-1398 -752 c85 -40 151 -106 191
-191 29 -60 32 -77 32 -157 0 -77 -4 -98 -28 -149 -32 -70 -86 -138 -127 -163
-17 -9 -30 -20 -30 -23 0 -3 27 -13 60 -24 33 -10 63 -22 66 -27 2 -4 -6 -26
-20 -47 -122 -194 -201 -449 -213 -684 -5 -116 -4 -129 15 -167 l22 -41 -441
0 c-485 0 -483 0 -515 62 -14 26 -16 50 -11 128 19 314 205 599 482 738 33 16
79 35 103 42 23 7 42 15 42 17 0 3 -25 27 -55 55 -36 32 -66 73 -87 116 -31
62 -33 74 -33 167 0 88 3 107 27 157 49 104 152 191 261 219 18 4 68 7 112 5
66 -2 93 -8 147 -33z m2789 21 c108 -32 199 -110 248 -213 23 -49 26 -69 26
-156 0 -93 -2 -105 -33 -167 -21 -43 -51 -84 -87 -116 -30 -28 -55 -52 -55
-55 0 -2 19 -10 43 -17 194 -58 385 -226 488 -431 81 -162 124 -401 85 -474
-36 -66 -26 -65 -515 -65 l-441 0 21 42 c20 39 21 53 16 158 -11 240 -91 498
-213 692 -14 21 -22 43 -20 47 3 5 33 17 66 27 33 11 60 21 60 24 -1 3 -18 17
-40 32 -56 39 -107 113 -131 191 -90 290 187 567 482 481z"/>
</g>
</svg>
